<?xml version="1.0" encoding="UTF-8"?>
<svg id="Layer_1" data-name="Layer 1" xmlns="http://www.w3.org/2000/svg" viewBox="0 0 270 270">
  <defs>
    <style>
      .cls-1 {
        fill: none;
        stroke: #009add;
        stroke-linecap: round;
        stroke-linejoin: round;
        stroke-width: 3px;
      }
    </style>
  </defs>
  <g>
    <polyline class="cls-1" points="31.78 216.6 31.78 171.02 64.89 159.36 64.89 173.32 100.06 158.03 100.06 216.6 16.95 216.6 19.76 139.35 39.75 139.35 40.3 156.84"/>
    <polyline class="cls-1" points="44.26 216.6 44.26 188.66 64.89 188.66 64.89 216.6"/>
    <line class="cls-1" x1="75.19" y1="179.15" x2="75.19" y2="186.52"/>
    <line class="cls-1" x1="88.1" y1="179.15" x2="88.1" y2="186.52"/>
  </g>
  <g>
    <path class="cls-1" d="M162.26,93.24h-63.67c-1.89,0-3.41-1.53-3.41-3.41v-52.03c0-1.06.5-2.07,1.34-2.71l31.84-24.29c1.22-.93,2.92-.93,4.14,0l31.84,24.29c.85.65,1.34,1.65,1.34,2.71v52.03c0,1.89-1.53,3.41-3.41,3.41Z"/>
    <polyline class="cls-1" points="112.92 93.24 112.92 59.7 147.91 59.7 147.91 93.24"/>
    <circle class="cls-1" cx="130.42" cy="40.45" r="7.41"/>
  </g>
  <g>
    <g>
      <path class="cls-1" d="M37.34,111.42c3.8-22.92,15.14-43.33,31.41-58.63v19.42"/>
      <line class="cls-1" x1="68.75" y1="52.79" x2="48.08" y2="53.7"/>
    </g>
    <g>
      <path class="cls-1" d="M208.01,47.86c18.12,14.73,30.28,34.66,35.51,56.28l-16.97-9.71"/>
      <line class="cls-1" x1="243.52" y1="104.14" x2="253.05" y2="85.94"/>
    </g>
    <g>
      <path class="cls-1" d="M178.2,226.17c-21.92,8.2-45.42,8.66-66.92,2.35l16.97-9.71"/>
      <line class="cls-1" x1="111.28" y1="228.52" x2="122.41" y2="245.8"/>
    </g>
  </g>
  <g>
    <polyline class="cls-1" points="221.33 188.98 221.33 148.44 158.76 148.44 158.76 187.67"/>
    <line class="cls-1" x1="192.25" y1="199.15" x2="216.21" y2="199.28"/>
    <path class="cls-1" d="M221.4,158.65h20.43c1.75,0,3.33,1.06,4,2.69l7.22,17.7v12.34"/>
    <circle class="cls-1" cx="237.19" cy="199.31" r="7.93" transform="translate(-71.46 226.09) rotate(-45)"/>
    <circle class="cls-1" cx="173.74" cy="199.31" r="7.93" transform="translate(-90.04 181.23) rotate(-45)"/>
    <line class="cls-1" x1="253.05" y1="179.04" x2="221.4" y2="179.04"/>
  </g>
</svg>