<?xml version="1.0" encoding="UTF-8"?><svg id="Layer_1" xmlns="http://www.w3.org/2000/svg" viewBox="0 0 270 270"><defs><style>.cls-1{stroke-linecap:round;stroke-linejoin:round;}.cls-1,.cls-2{fill:none;stroke:#009add;stroke-width:3px;}.cls-2{stroke-miterlimit:10;}</style></defs><path class="cls-2" d="M31.65,194.44c-1.75,11.59,6.22,20.98,17.8,20.98s22.4-9.39,24.16-20.98c1.75-11.59-6.22-20.98-17.8-20.98s-22.4,9.39-24.16,20.98Z"/><polyline class="cls-1" points="10.87 54.58 185.7 54.58 164.53 194.44 73.61 194.44"/><polyline class="cls-1" points="31.65 194.44 3.68 194.44 7.91 166.47"/><line class="cls-1" x1="164.53" y1="194.44" x2="192.5" y2="194.44"/><path class="cls-2" d="M192.5,194.44c-1.75,11.59,6.22,20.98,17.8,20.98s22.4-9.39,24.16-20.98c1.75-11.59-6.22-20.98-17.8-20.98s-22.4,9.39-24.16,20.98Z"/><path class="cls-1" d="M181.47,82.55h28.13c10.01,0,15.09,2.42,19.43,10.73l19.03,37.41s12.31,15.84,15.19,20.34c2.89,4.5,4.48,8.44,3.42,15.43-1.06,6.99-4.23,27.97-4.23,27.97h-27.97"/><polyline class="cls-1" points="199.69 117.22 203.43 131.5 225.99 135"/><line class="cls-1" x1="2" y1="82.55" x2="78.93" y2="82.55"/><line class="cls-1" x1="43.96" y1="110.52" x2="106.9" y2="110.52"/><line class="cls-1" x1="8.99" y1="138.5" x2="78.93" y2="138.5"/></svg>